<?xml version="1.0" encoding="iso-8859-1"?>
<!-- Generator: Adobe Illustrator 19.0.0, SVG Export Plug-In . SVG Version: 6.00 Build 0)  -->
<svg version="1.1" id="Layer_1" xmlns="http://www.w3.org/2000/svg" xmlns:xlink="http://www.w3.org/1999/xlink" x="0px" y="0px"
	 viewBox="0 0 512 512" style="enable-background:new 0 0 512 512;" xml:space="preserve">
<polygon style="fill:#C59981;" points="284.023,436.148 370.199,436.148 327.111,376.491 "/>
<g>
	<path style="fill:#DBCF56;" d="M350.815,151.704c10.458,0,18.963-8.509,18.963-18.963s-8.505-18.963-18.963-18.963
		c-10.458,0-18.963,8.509-18.963,18.963S340.357,151.704,350.815,151.704z"/>
	<path style="fill:#DBCF56;" d="M208.593,331.852c-10.458,0-18.963,8.509-18.963,18.963c0,10.454,8.505,18.963,18.963,18.963
		s18.963-8.509,18.963-18.963C227.556,340.361,219.051,331.852,208.593,331.852z"/>
</g>
<g>
	<polygon style="fill:#C59981;" points="251.532,218.074 288.912,218.074 270.222,175.361 	"/>
	<polygon style="fill:#C59981;" points="185.162,218.074 222.542,218.074 203.852,175.361 	"/>
</g>
<g>
	<path style="fill:#73C9C9;" d="M195.167,147.907c1.509-3.454,4.917-5.685,8.685-5.685c3.768,0,7.176,2.231,8.685,5.685l24.5,56
		l24.5-56c1.509-3.454,4.917-5.685,8.685-5.685s7.176,2.231,8.685,5.685l30.698,70.167h98.098V85.333h-256v132.741h12.765
		L195.167,147.907z M350.815,94.815c20.912,0,37.926,17.009,37.926,37.926c0,20.917-17.014,37.926-37.926,37.926
		s-37.926-17.009-37.926-37.926S329.903,94.815,350.815,94.815z"/>
	<path style="fill:#73C9C9;" d="M319.426,354.741c3.565-4.926,11.806-4.926,15.37,0l58.794,81.408h14.113V303.407h-256v132.741
		h108.928L319.426,354.741z M208.593,388.741c-20.912,0-37.926-17.009-37.926-37.926s17.014-37.926,37.926-37.926
		s37.926,17.009,37.926,37.926S229.505,388.741,208.593,388.741z"/>
</g>
<path style="fill:#E9E7D1;" d="M85.333,47.407h28.444V66.37H85.333v37.926h28.444v18.963H85.333v37.926h28.444v18.963H85.333v37.926
	h28.444v18.963H85.333v37.926h28.444v18.963H85.333v37.926h28.444v18.963H85.333v37.926h28.444v18.963H85.333v37.926h28.444v18.963
	H85.333v28.444h369.778V18.963H85.333V47.407z M132.741,75.852c0-5.241,4.245-9.481,9.481-9.481h274.963
	c5.236,0,9.481,4.241,9.481,9.481v151.704c0,5.241-4.245,9.481-9.481,9.481H303.407h-66.37h-66.37h-28.444
	c-5.236,0-9.481-4.241-9.481-9.481V75.852z M132.741,293.926c0-5.241,4.245-9.481,9.481-9.481h274.963
	c5.236,0,9.481,4.241,9.481,9.481V445.63c0,5.241-4.245,9.481-9.481,9.481h-28.444H265.481H142.222
	c-5.236,0-9.481-4.241-9.481-9.481V293.926z"/>
<g>
	<path style="fill:#314E55;" d="M464.593,0H75.852c-5.236,0-9.481,4.241-9.481,9.481v37.926H37.926V66.37H66.37v37.926H37.926
		v18.963H66.37v37.926H37.926v18.963H66.37v37.926H37.926v18.963H66.37v37.926H37.926v18.963H66.37v37.926H37.926v18.963H66.37
		v37.926H37.926v18.963H66.37v37.926H37.926v18.963H66.37v37.926c0,5.241,4.245,9.481,9.481,9.481h388.741
		c5.236,0,9.481-4.241,9.481-9.481V9.481C474.074,4.241,469.829,0,464.593,0z M455.111,493.037H85.333v-28.444h28.444V445.63H85.333
		v-37.926h28.444v-18.963H85.333v-37.926h28.444v-18.963H85.333v-37.926h28.444v-18.963H85.333v-37.926h28.444v-18.963H85.333
		v-37.926h28.444v-18.963H85.333v-37.926h28.444v-18.963H85.333V66.37h28.444V47.407H85.333V18.963h369.778V493.037z"/>
	<path style="fill:#314E55;" d="M142.222,237.037h28.444h66.37h66.37h113.778c5.236,0,9.481-4.241,9.481-9.481V75.852
		c0-5.241-4.245-9.481-9.481-9.481H142.222c-5.236,0-9.481,4.241-9.481,9.481v151.704
		C132.741,232.796,136.986,237.037,142.222,237.037z M185.162,218.074l18.69-42.713l18.69,42.713H185.162z M251.532,218.074
		l18.69-42.713l18.69,42.713H251.532z M151.704,85.333h256v132.741h-98.098l-30.698-70.167c-1.509-3.454-4.917-5.685-8.685-5.685
		s-7.176,2.231-8.685,5.685l-24.5,56l-24.5-56c-1.509-3.454-4.917-5.685-8.685-5.685c-3.768,0-7.176,2.231-8.685,5.685
		l-30.698,70.167h-12.765V85.333z"/>
	<path style="fill:#314E55;" d="M142.222,455.111h123.259h123.259h28.444c5.236,0,9.481-4.241,9.481-9.481V293.926
		c0-5.241-4.245-9.481-9.481-9.481H142.222c-5.236,0-9.481,4.241-9.481,9.481V445.63
		C132.741,450.87,136.986,455.111,142.222,455.111z M284.023,436.148l43.088-59.658l43.088,59.658H284.023z M151.704,303.407h256
		v132.741H393.59l-58.794-81.408c-3.565-4.926-11.806-4.926-15.37,0l-58.794,81.408H151.704V303.407z"/>
	<path style="fill:#314E55;" d="M350.815,170.667c20.912,0,37.926-17.009,37.926-37.926s-17.014-37.926-37.926-37.926
		s-37.926,17.009-37.926,37.926C312.889,153.657,329.903,170.667,350.815,170.667z M350.815,113.778
		c10.458,0,18.963,8.509,18.963,18.963s-8.505,18.963-18.963,18.963c-10.458,0-18.963-8.509-18.963-18.963
		S340.357,113.778,350.815,113.778z"/>
	<path style="fill:#314E55;" d="M208.593,312.889c-20.912,0-37.926,17.009-37.926,37.926s17.014,37.926,37.926,37.926
		s37.926-17.009,37.926-37.926S229.505,312.889,208.593,312.889z M208.593,369.778c-10.458,0-18.963-8.509-18.963-18.963
		c0-10.454,8.505-18.963,18.963-18.963s18.963,8.509,18.963,18.963C227.556,361.269,219.051,369.778,208.593,369.778z"/>
</g>
<g>
</g>
<g>
</g>
<g>
</g>
<g>
</g>
<g>
</g>
<g>
</g>
<g>
</g>
<g>
</g>
<g>
</g>
<g>
</g>
<g>
</g>
<g>
</g>
<g>
</g>
<g>
</g>
<g>
</g>
</svg>
